/* XPM */
static char * scrolllock_on_xpm[] = {
"21 21 122 2",
"  	c None",
". 	c #929292",
"+ 	c #B3B3B3",
"@ 	c #B1B1B1",
"# 	c #B0B0B0",
"$ 	c #AFAFAF",
"% 	c #AEAEAE",
"& 	c #ADADAD",
"* 	c #ACACAC",
"= 	c #A5A5A5",
"- 	c #A4A4A4",
"; 	c #A2A2A2",
"> 	c #9E9E9E",
", 	c #9A9A9A",
"' 	c #797979",
") 	c #717171",
"! 	c #F2F2F2",
"~ 	c #F4F4F4",
"{ 	c #EFEFEF",
"] 	c #EEEEEE",
"^ 	c #ECECEC",
"/ 	c #EBEBEB",
"( 	c #EAEAEA",
"_ 	c #E7E7E7",
": 	c #E3E3E3",
"< 	c #DEDEDE",
"[ 	c #DCDCDC",
"} 	c #D7D7D7",
"| 	c #CFCFCF",
"1 	c #C3C3C3",
"2 	c #4B4B4B",
"3 	c #767676",
"4 	c #F9F9F9",
"5 	c #F8F8F8",
"6 	c #D8D8D8",
"7 	c #DADADA",
"8 	c #E0E0E0",
"9 	c #E6E6E6",
"0 	c #E8E8E8",
"a 	c #B8B8B8",
"b 	c #454545",
"c 	c #E5E5E5",
"d 	c #F0F0F0",
"e 	c #A9A9A9",
"f 	c #424242",
"g 	c #F5F5F5",
"h 	c #F6F6F6",
"i 	c #DDDDDD",
"j 	c #727272",
"k 	c #737373",
"l 	c #757575",
"m 	c #EDEDED",
"n 	c #F1F1F1",
"o 	c #A6A6A6",
"p 	c #A0A0A0",
"q 	c #DFDFDF",
"r 	c #E2E2E2",
"s 	c #050505",
"t 	c #7C7C7C",
"u 	c #7F7F7F",
"v 	c #030303",
"w 	c #E4E4E4",
"x 	c #1D1D1D",
"y 	c #E9E9E9",
"z 	c #0B0B0B",
"A 	c #999999",
"B 	c #E1E1E1",
"C 	c #090909",
"D 	c #0E0E0E",
"E 	c #959595",
"F 	c #7E7E7E",
"G 	c #1E1E1E",
"H 	c #787878",
"I 	c #F3F3F3",
"J 	c #8C8C8C",
"K 	c #8A8A8A",
"L 	c #3A3A3A",
"M 	c #939393",
"N 	c #C9C9C9",
"O 	c #070707",
"P 	c #3E3E3E",
"Q 	c #F7F7F7",
"R 	c #868686",
"S 	c #848484",
"T 	c #3D3D3D",
"U 	c #2C2C2C",
"V 	c #505050",
"W 	c #404040",
"X 	c #828282",
"Y 	c #3B3B3B",
"Z 	c #666666",
"` 	c #7B7B7B",
" .	c #FAFAFA",
"..	c #393939",
"+.	c #DBDBDB",
"@.	c #C7C7C7",
"#.	c #6E6E6E",
"$.	c #383838",
"%.	c #D3D3D3",
"&.	c #D0D0D0",
"*.	c #8E8E8E",
"=.	c #686868",
"-.	c #606060",
";.	c #5E5E5E",
">.	c #626262",
",.	c #585858",
"'.	c #545454",
").	c #555555",
"!.	c #5C5C5C",
"~.	c #3F3F3F",
"{.	c #414141",
"].	c #494949",
"^.	c #484848",
"/.	c #444444",
"(.	c #464646",
"_.	c #4C4C4C",
":.	c #6A6A6A",
"<.	c #858585",
"[.	c #565656",
"}.	c #434343",
"|.	c #4D4D4D",
"1.	c #323232",
"                                          ",
"                                          ",
"    . + @ # # # $ % % & * = - ; > , '     ",
"  ) ! ~ ~ { ] ^ ^ / ( _ : < [ } | 1 @ 2   ",
"  3 4 5 ^ } 6 7 < 8 : 9 0 ( ^ ] ( a + b   ",
"  3 5 5 : } 7 < 8 : c _ ( ^ ] d ^ # e f   ",
"  3 g h c 7 i 8 ) j k l l m { n ] o p f   ",
"  3 ! ! 9 [ q r s t u ' v ^ d ! d p > f   ",
"  3 ] ] 0 q r w x y / ^ z ^ d ~ d > A f   ",
"  3 m ^ ( B w 9 C / ^ ^ D { ! g ! E . f   ",
"  3 ] ^ ^ w k F v ^ ^ ^ G H ' h I J K f   ",
"  3 m ^ m 9 L C M m ^ d N O P Q ~ R S T   ",
"  3 / / ] _ 0 U V ^ m { W P 4 5 ~ X F T   ",
"  3 ( y d ( / ^ Y Z { f P 5 4 4 g F ` T   ",
"  3 9 9 n / m { d T v P 4 5 4  .h ` ' T   ",
"  3 r < ! m { d ! ~ ` 5 5 4 4  .h l 3 ..  ",
"  3 [ +.{ ( ( ^ m ] ] ] { d n n @.#.j $.  ",
"  3 %.&.%.*.=.-.;.>.>.;.,.'.'.).,.#.=.$.  ",
"  k 1 + !.~.~.{.{.b ].2 ^././.(._.).:...  ",
"    <.[.W W {.~.f f f }.f {.f f }.(.|.1.  ",
"                                          "};
