/* XPM */
static char * capslock_off_xpm[] = {
"21 21 108 2",
"  	c None",
". 	c #929292",
"+ 	c #B3B3B3",
"@ 	c #B1B1B1",
"# 	c #B0B0B0",
"$ 	c #AFAFAF",
"% 	c #AEAEAE",
"& 	c #ADADAD",
"* 	c #ACACAC",
"= 	c #A5A5A5",
"- 	c #A4A4A4",
"; 	c #A2A2A2",
"> 	c #9E9E9E",
", 	c #9A9A9A",
"' 	c #797979",
") 	c #717171",
"! 	c #F2F2F2",
"~ 	c #F4F4F4",
"{ 	c #EFEFEF",
"] 	c #EEEEEE",
"^ 	c #ECECEC",
"/ 	c #EBEBEB",
"( 	c #EAEAEA",
"_ 	c #E7E7E7",
": 	c #E3E3E3",
"< 	c #DEDEDE",
"[ 	c #DCDCDC",
"} 	c #D7D7D7",
"| 	c #CFCFCF",
"1 	c #C3C3C3",
"2 	c #4B4B4B",
"3 	c #767676",
"4 	c #F9F9F9",
"5 	c #F8F8F8",
"6 	c #D8D8D8",
"7 	c #DADADA",
"8 	c #E0E0E0",
"9 	c #E6E6E6",
"0 	c #E8E8E8",
"a 	c #B8B8B8",
"b 	c #454545",
"c 	c #E5E5E5",
"d 	c #F0F0F0",
"e 	c #A9A9A9",
"f 	c #424242",
"g 	c #F5F5F5",
"h 	c #F6F6F6",
"i 	c #DDDDDD",
"j 	c #BFBFBF",
"k 	c #EDEDED",
"l 	c #F1F1F1",
"m 	c #A6A6A6",
"n 	c #A0A0A0",
"o 	c #DFDFDF",
"p 	c #E2E2E2",
"q 	c #C5C5C5",
"r 	c #999999",
"s 	c #E1E1E1",
"t 	c #E4E4E4",
"u 	c #959595",
"v 	c #F3F3F3",
"w 	c #8C8C8C",
"x 	c #8A8A8A",
"y 	c #C6C6C6",
"z 	c #F7F7F7",
"A 	c #868686",
"B 	c #848484",
"C 	c #3D3D3D",
"D 	c #828282",
"E 	c #7E7E7E",
"F 	c #E9E9E9",
"G 	c #C9C9C9",
"H 	c #CACACA",
"I 	c #7B7B7B",
"J 	c #FAFAFA",
"K 	c #757575",
"L 	c #393939",
"M 	c #DBDBDB",
"N 	c #C7C7C7",
"O 	c #6E6E6E",
"P 	c #727272",
"Q 	c #383838",
"R 	c #D3D3D3",
"S 	c #D0D0D0",
"T 	c #8E8E8E",
"U 	c #686868",
"V 	c #606060",
"W 	c #5E5E5E",
"X 	c #626262",
"Y 	c #585858",
"Z 	c #545454",
"` 	c #555555",
" .	c #737373",
"..	c #5C5C5C",
"+.	c #3F3F3F",
"@.	c #414141",
"#.	c #494949",
"$.	c #484848",
"%.	c #444444",
"&.	c #464646",
"*.	c #4C4C4C",
"=.	c #6A6A6A",
"-.	c #858585",
";.	c #565656",
">.	c #404040",
",.	c #434343",
"'.	c #4D4D4D",
").	c #323232",
"                                          ",
"                                          ",
"    . + @ # # # $ % % & * = - ; > , '     ",
"  ) ! ~ ~ { ] ^ ^ / ( _ : < [ } | 1 @ 2   ",
"  3 4 5 ^ } 6 7 < 8 : 9 0 ( ^ ] ( a + b   ",
"  3 5 5 : } 7 < 8 : c _ ( ^ ] d ^ # e f   ",
"  3 g h c 7 i 8 j j j j j k { l ] m n f   ",
"  3 ! ! 9 [ o p j j j j j ^ d ! d n > f   ",
"  3 ] ] 0 o p i j j j j j q d ~ d > r f   ",
"  3 k ^ ( s t j j j j j j j ! g ! u . f   ",
"  3 ] ^ ^ t 9 j j j ^ j j j ! h v w x f   ",
"  3 k ^ k 9 s j j j j j j j y z ~ A B C   ",
"  3 / / ] _ j j j j j j j j j 5 ~ D E C   ",
"  3 ( F d ( j j j j G H j j j 4 g E I C   ",
"  3 9 9 l / j j j ! ~ 5 j j j } h I ' C   ",
"  3 p < ! k { d ! ~ z 5 5 4 4 J h K 3 L   ",
"  3 [ M { ( ( ^ k ] ] ] { d l l N O P Q   ",
"  3 R S R T U V W X X W Y Z Z ` Y O U Q   ",
"   .1 + ..+.+.@.@.b #.2 $.%.%.&.*.` =.L   ",
"    -.;.>.>.@.+.f f f ,.f @.f f ,.&.'.).  ",
"                                          "};
