/* XPM */
static char * capslock_on_xpm[] = {
"21 21 121 2",
"  	c None",
". 	c #929292",
"+ 	c #B3B3B3",
"@ 	c #B1B1B1",
"# 	c #B0B0B0",
"$ 	c #AFAFAF",
"% 	c #AEAEAE",
"& 	c #ADADAD",
"* 	c #ACACAC",
"= 	c #A5A5A5",
"- 	c #A4A4A4",
"; 	c #A2A2A2",
"> 	c #9E9E9E",
", 	c #9A9A9A",
"' 	c #797979",
") 	c #717171",
"! 	c #F2F2F2",
"~ 	c #F4F4F4",
"{ 	c #EFEFEF",
"] 	c #EEEEEE",
"^ 	c #ECECEC",
"/ 	c #EBEBEB",
"( 	c #EAEAEA",
"_ 	c #E7E7E7",
": 	c #E3E3E3",
"< 	c #DEDEDE",
"[ 	c #DCDCDC",
"} 	c #D7D7D7",
"| 	c #CFCFCF",
"1 	c #C3C3C3",
"2 	c #4B4B4B",
"3 	c #767676",
"4 	c #F9F9F9",
"5 	c #F8F8F8",
"6 	c #D8D8D8",
"7 	c #DADADA",
"8 	c #E0E0E0",
"9 	c #E6E6E6",
"0 	c #E8E8E8",
"a 	c #B8B8B8",
"b 	c #454545",
"c 	c #E5E5E5",
"d 	c #F0F0F0",
"e 	c #A9A9A9",
"f 	c #424242",
"g 	c #F5F5F5",
"h 	c #F6F6F6",
"i 	c #DDDDDD",
"j 	c #909090",
"k 	c #010101",
"l 	c #7C7C7C",
"m 	c #EDEDED",
"n 	c #F1F1F1",
"o 	c #A6A6A6",
"p 	c #A0A0A0",
"q 	c #DFDFDF",
"r 	c #E2E2E2",
"s 	c #4D4D4D",
"t 	c #2E2E2E",
"u 	c #0D0D0D",
"v 	c #3B3B3B",
"w 	c #C5C5C5",
"x 	c #999999",
"y 	c #E1E1E1",
"z 	c #E4E4E4",
"A 	c #9F9F9F",
"B 	c #959595",
"C 	c #545454",
"D 	c #555555",
"E 	c #222222",
"F 	c #F3F3F3",
"G 	c #8C8C8C",
"H 	c #8A8A8A",
"I 	c #C6C6C6",
"J 	c #F7F7F7",
"K 	c #868686",
"L 	c #848484",
"M 	c #3D3D3D",
"N 	c #686868",
"O 	c #828282",
"P 	c #7E7E7E",
"Q 	c #E9E9E9",
"R 	c #C9C9C9",
"S 	c #CACACA",
"T 	c #2A2A2A",
"U 	c #151515",
"V 	c #7B7B7B",
"W 	c #5C5C5C",
"X 	c #505050",
"Y 	c #5D5D5D",
"Z 	c #989898",
"` 	c #535353",
" .	c #FAFAFA",
"..	c #757575",
"+.	c #393939",
"@.	c #DBDBDB",
"#.	c #C7C7C7",
"$.	c #6E6E6E",
"%.	c #727272",
"&.	c #383838",
"*.	c #D3D3D3",
"=.	c #D0D0D0",
"-.	c #8E8E8E",
";.	c #606060",
">.	c #5E5E5E",
",.	c #626262",
"'.	c #585858",
").	c #737373",
"!.	c #3F3F3F",
"~.	c #414141",
"{.	c #494949",
"].	c #484848",
"^.	c #444444",
"/.	c #464646",
"(.	c #4C4C4C",
"_.	c #6A6A6A",
":.	c #858585",
"<.	c #565656",
"[.	c #404040",
"}.	c #434343",
"|.	c #323232",
"                                          ",
"                                          ",
"    . + @ # # # $ % % & * = - ; > , '     ",
"  ) ! ~ ~ { ] ^ ^ / ( _ : < [ } | 1 @ 2   ",
"  3 4 5 ^ } 6 7 < 8 : 9 0 ( ^ ] ( a + b   ",
"  3 5 5 : } 7 < 8 : c _ ( ^ ] d ^ # e f   ",
"  3 g h c 7 i 8 j k k k l m { n ] o p f   ",
"  3 ! ! 9 [ q r s k k k t ^ d ! d p > f   ",
"  3 ] ] 0 q r i u k v k k w d ~ d > x f   ",
"  3 m ^ ( y z A k k @ u k ) ! g ! B . f   ",
"  3 ] ^ ^ z 9 C k u ^ D k E ! h F G H f   ",
"  3 m ^ m 9 y u k k k k k k I J ~ K L M   ",
"  3 / / ] _ ; k k k k k k k N 5 ~ O P M   ",
"  3 ( Q d ( D k k + R S T k U 4 g P V M   ",
"  3 9 9 n / W X Y ! ~ 5 Z ` ` } h V ' M   ",
"  3 r < ! m { d ! ~ J 5 5 4 4  .h ..3 +.  ",
"  3 [ @.{ ( ( ^ m ] ] ] { d n n #.$.%.&.  ",
"  3 *.=.*.-.N ;.>.,.,.>.'.C C D '.$.N &.  ",
"  ).1 + W !.!.~.~.b {.2 ].^.^./.(.D _.+.  ",
"    :.<.[.[.~.!.f f f }.f ~.f f }./.s |.  ",
"                                          "};
