/* XPM */
static char * numlock_on_xpm[] = {
"21 21 115 2",
"  	c None",
". 	c #929292",
"+ 	c #B3B3B3",
"@ 	c #B1B1B1",
"# 	c #B0B0B0",
"$ 	c #AFAFAF",
"% 	c #AEAEAE",
"& 	c #ADADAD",
"* 	c #ACACAC",
"= 	c #A5A5A5",
"- 	c #A4A4A4",
"; 	c #A2A2A2",
"> 	c #9E9E9E",
", 	c #9A9A9A",
"' 	c #797979",
") 	c #717171",
"! 	c #F2F2F2",
"~ 	c #F4F4F4",
"{ 	c #EFEFEF",
"] 	c #EEEEEE",
"^ 	c #ECECEC",
"/ 	c #EBEBEB",
"( 	c #EAEAEA",
"_ 	c #E7E7E7",
": 	c #E3E3E3",
"< 	c #DEDEDE",
"[ 	c #DCDCDC",
"} 	c #D7D7D7",
"| 	c #CFCFCF",
"1 	c #C3C3C3",
"2 	c #4B4B4B",
"3 	c #767676",
"4 	c #F9F9F9",
"5 	c #F8F8F8",
"6 	c #D8D8D8",
"7 	c #DADADA",
"8 	c #E0E0E0",
"9 	c #E6E6E6",
"0 	c #E8E8E8",
"a 	c #B8B8B8",
"b 	c #454545",
"c 	c #BFBFBF",
"d 	c #C7C7C7",
"e 	c #F0F0F0",
"f 	c #A9A9A9",
"g 	c #424242",
"h 	c #F5F5F5",
"i 	c #F6F6F6",
"j 	c #E5E5E5",
"k 	c #DDDDDD",
"l 	c #E2E2E2",
"m 	c #010101",
"n 	c #282828",
"o 	c #EDEDED",
"p 	c #F1F1F1",
"q 	c #A6A6A6",
"r 	c #A0A0A0",
"s 	c #DFDFDF",
"t 	c #D5D5D5",
"u 	c #6D6D6D",
"v 	c #070707",
"w 	c #999999",
"x 	c #E1E1E1",
"y 	c #E4E4E4",
"z 	c #0D0D0D",
"A 	c #616161",
"B 	c #686868",
"C 	c #959595",
"D 	c #DBDBDB",
"E 	c #F3F3F3",
"F 	c #8C8C8C",
"G 	c #8A8A8A",
"H 	c #292929",
"I 	c #F7F7F7",
"J 	c #868686",
"K 	c #848484",
"L 	c #3D3D3D",
"M 	c #828282",
"N 	c #7E7E7E",
"O 	c #E9E9E9",
"P 	c #777777",
"Q 	c #7B7B7B",
"R 	c #A1A1A1",
"S 	c #525252",
"T 	c #6E6E6E",
"U 	c #FAFAFA",
"V 	c #757575",
"W 	c #393939",
"X 	c #727272",
"Y 	c #383838",
"Z 	c #D3D3D3",
"` 	c #D0D0D0",
" .	c #8E8E8E",
"..	c #606060",
"+.	c #5E5E5E",
"@.	c #626262",
"#.	c #585858",
"$.	c #545454",
"%.	c #555555",
"&.	c #737373",
"*.	c #5C5C5C",
"=.	c #3F3F3F",
"-.	c #414141",
";.	c #494949",
">.	c #484848",
",.	c #444444",
"'.	c #464646",
").	c #4C4C4C",
"!.	c #6A6A6A",
"~.	c #858585",
"{.	c #565656",
"].	c #404040",
"^.	c #434343",
"/.	c #4D4D4D",
"(.	c #323232",
"                                          ",
"                                          ",
"    . + @ # # # $ % % & * = - ; > , '     ",
"  ) ! ~ ~ { ] ^ ^ / ( _ : < [ } | 1 @ 2   ",
"  3 4 5 ^ } 6 7 < 8 : 9 0 ( ^ ] ( a + b   ",
"  3 5 5 : } 7 < 8 [ c d ( ^ ] e ^ # f g   ",
"  3 h i j 7 k 8 l ' m n / o { p ] q r g   ",
"  3 ! ! 9 [ s t u m m n / ^ e ! e r > g   ",
"  3 ] ] 0 s l v m m m n ^ ^ e ~ e > w g   ",
"  3 o ^ ( x y z A B m n ^ { ! h ! C . g   ",
"  3 ] ^ ^ y 9 D ( 3 m n e p ! i E F G g   ",
"  3 o ^ o 9 0 ( ^ 3 m H p ! i I ~ J K L   ",
"  3 / / ] _ ( ^ ] 3 m H ! ~ 4 5 ~ M N L   ",
"  3 ( O e ( / ] ^ P m H i 5 4 4 h N Q L   ",
"  3 9 9 p / o { e R S T 4 5 4 U i Q ' L   ",
"  3 l < ! o { e ! ~ I 5 5 4 4 U i V 3 W   ",
"  3 [ D { ( ( ^ o ] ] ] { e p p d T X Y   ",
"  3 Z ` Z  .B ..+.@.@.+.#.$.$.%.#.T B Y   ",
"  &.1 + *.=.=.-.-.b ;.2 >.,.,.'.).%.!.W   ",
"    ~.{.].].-.=.g g g ^.g -.g g ^.'./.(.  ",
"                                          "};
