/* XPM */
static char * numlock_off_xpm[] = {
"21 21 105 2",
"  	c None",
". 	c #929292",
"+ 	c #B3B3B3",
"@ 	c #B1B1B1",
"# 	c #B0B0B0",
"$ 	c #AFAFAF",
"% 	c #AEAEAE",
"& 	c #ADADAD",
"* 	c #ACACAC",
"= 	c #A5A5A5",
"- 	c #A4A4A4",
"; 	c #A2A2A2",
"> 	c #9E9E9E",
", 	c #9A9A9A",
"' 	c #797979",
") 	c #717171",
"! 	c #F2F2F2",
"~ 	c #F4F4F4",
"{ 	c #EFEFEF",
"] 	c #EEEEEE",
"^ 	c #ECECEC",
"/ 	c #EBEBEB",
"( 	c #EAEAEA",
"_ 	c #E7E7E7",
": 	c #E3E3E3",
"< 	c #DEDEDE",
"[ 	c #DCDCDC",
"} 	c #D7D7D7",
"| 	c #CFCFCF",
"1 	c #C3C3C3",
"2 	c #4B4B4B",
"3 	c #767676",
"4 	c #F9F9F9",
"5 	c #F8F8F8",
"6 	c #D8D8D8",
"7 	c #DADADA",
"8 	c #E0E0E0",
"9 	c #E6E6E6",
"0 	c #E8E8E8",
"a 	c #B8B8B8",
"b 	c #454545",
"c 	c #BFBFBF",
"d 	c #C7C7C7",
"e 	c #F0F0F0",
"f 	c #A9A9A9",
"g 	c #424242",
"h 	c #F5F5F5",
"i 	c #F6F6F6",
"j 	c #E5E5E5",
"k 	c #DDDDDD",
"l 	c #E2E2E2",
"m 	c #EDEDED",
"n 	c #F1F1F1",
"o 	c #A6A6A6",
"p 	c #A0A0A0",
"q 	c #DFDFDF",
"r 	c #D5D5D5",
"s 	c #999999",
"t 	c #E1E1E1",
"u 	c #E4E4E4",
"v 	c #959595",
"w 	c #DBDBDB",
"x 	c #F3F3F3",
"y 	c #8C8C8C",
"z 	c #8A8A8A",
"A 	c #F7F7F7",
"B 	c #868686",
"C 	c #848484",
"D 	c #3D3D3D",
"E 	c #828282",
"F 	c #7E7E7E",
"G 	c #E9E9E9",
"H 	c #7B7B7B",
"I 	c #FAFAFA",
"J 	c #757575",
"K 	c #393939",
"L 	c #6E6E6E",
"M 	c #727272",
"N 	c #383838",
"O 	c #D3D3D3",
"P 	c #D0D0D0",
"Q 	c #8E8E8E",
"R 	c #686868",
"S 	c #606060",
"T 	c #5E5E5E",
"U 	c #626262",
"V 	c #585858",
"W 	c #545454",
"X 	c #555555",
"Y 	c #737373",
"Z 	c #5C5C5C",
"` 	c #3F3F3F",
" .	c #414141",
"..	c #494949",
"+.	c #484848",
"@.	c #444444",
"#.	c #464646",
"$.	c #4C4C4C",
"%.	c #6A6A6A",
"&.	c #858585",
"*.	c #565656",
"=.	c #404040",
"-.	c #434343",
";.	c #4D4D4D",
">.	c #323232",
"                                          ",
"                                          ",
"    . + @ # # # $ % % & * = - ; > , '     ",
"  ) ! ~ ~ { ] ^ ^ / ( _ : < [ } | 1 @ 2   ",
"  3 4 5 ^ } 6 7 < 8 : 9 0 ( ^ ] ( a + b   ",
"  3 5 5 : } 7 < 8 [ c d ( ^ ] e ^ # f g   ",
"  3 h i j 7 k 8 l c c c / m { n ] o p g   ",
"  3 ! ! 9 [ q r c c c c / ^ e ! e p > g   ",
"  3 ] ] 0 q l c c c c c ^ ^ e ~ e > s g   ",
"  3 m ^ ( t u c c c c c ^ { ! h ! v . g   ",
"  3 ] ^ ^ u 9 w ( c c c e n ! i x y z g   ",
"  3 m ^ m 9 0 ( ^ c c c n ! i A ~ B C D   ",
"  3 / / ] _ ( ^ ] c c c ! ~ 4 5 ~ E F D   ",
"  3 ( G e ( / ] ^ c c c i 5 4 4 h F H D   ",
"  3 9 9 n / m { e c c c 4 5 4 I i H ' D   ",
"  3 l < ! m { e ! ~ A 5 5 4 4 I i J 3 K   ",
"  3 [ w { ( ( ^ m ] ] ] { e n n d L M N   ",
"  3 O P O Q R S T U U T V W W X V L R N   ",
"  Y 1 + Z ` `  . .b ..2 +.@.@.#.$.X %.K   ",
"    &.*.=.=. .` g g g -.g  .g g -.#.;.>.  ",
"                                          "};
